<?xml version="1.0" encoding="UTF-8"?>
<svg version="1.1" xmlns="http://www.w3.org/2000/svg" width="600" height="600">
<path d="M0 0 C3.78366653 2.78396869 5.53112972 5.59338916 7 10 C7.93277225 18.8075226 5.78576971 27.4325572 4 36 C4.65226562 35.40832031 5.30453125 34.81664062 5.9765625 34.20703125 C19.47797716 22 19.47797716 22 22 22 C22 21.34 22 20.68 22 20 C24.1171875 18.2734375 24.1171875 18.2734375 26.875 16.375 C28.23238281 15.42753906 28.23238281 15.42753906 29.6171875 14.4609375 C32 13 32 13 34 13 C34 12.34 34 11.68 34 11 C42.07072881 8.62287323 51.49309098 9.11552141 59 13 C61.875 15.4375 61.875 15.4375 64 18 C64.52851563 18.53753906 65.05703125 19.07507813 65.6015625 19.62890625 C67.67041734 23.1367132 67.5273782 26.53787287 67.5 30.5 C67.50008057 31.38131592 67.50016113 32.26263184 67.50024414 33.1706543 C67.27525822 44.39287712 65.43999038 55.49035494 63.69140625 66.55859375 C63.51636314 67.70004097 63.51636314 67.70004097 63.33778381 68.86454773 C63.11787408 70.29170721 62.88895967 71.7175233 62.64891052 73.14143372 C61.72770458 79.14898233 61.43919961 84.81311583 65.07421875 89.90625 C65.93660156 90.7621875 66.79898437 91.618125 67.6875 92.5 C68.595 93.44230469 69.5025 94.38460937 70.4375 95.35546875 C71.283125 96.22816406 72.12875 97.10085937 73 98 C77.96522956 103.64129876 81.16813243 110.02472164 84.40234375 116.75 C85.57527917 119.13602022 86.76462034 121.33053191 88.1875 123.5625 C90.94611307 128.79435237 92.41286112 134.32040384 94 140 C94.29132813 140.97195312 94.58265625 141.94390625 94.8828125 142.9453125 C100.14109698 161.68114168 99.1950348 181.39368619 90.5703125 198.90234375 C84.54946637 209.3414725 73.81291204 219.55011863 63 225 C59.4375 225.875 59.4375 225.875 57 226 C57 226.66 57 227.32 57 228 C53.10582522 229.31745676 49.2093878 230.62809198 45.3125 231.9375 C44.20970703 232.31068359 43.10691406 232.68386719 41.97070312 233.06835938 C40.90400391 233.42607422 39.83730469 233.78378906 38.73828125 234.15234375 C37.75899658 234.48226318 36.77971191 234.81218262 35.77075195 235.15209961 C29.89698784 236.94957804 23.83173768 237.62952643 17.765625 238.5 C15.09927363 238.71071724 15.09927363 238.71071724 14 240 C9.61161937 240.31109572 5.21053989 240.27854704 0.8125 240.3125 C-0.42048828 240.34150391 -1.65347656 240.37050781 -2.92382812 240.40039062 C-14.08436567 240.47868905 -14.08436567 240.47868905 -19 236 C-19.78375 235.46375 -20.5675 234.9275 -21.375 234.375 C-21.91125 233.92125 -22.4475 233.4675 -23 233 C-23 232.34 -23 231.68 -23 231 C-23.66 231 -24.32 231 -25 231 C-31.49845548 218.56817212 -28.68346658 205.46619616 -27.18359375 192.00195312 C-26.95433795 189.83714838 -26.95433795 189.83714838 -27 187 C-27.88042969 187.88042969 -28.76085937 188.76085937 -29.66796875 189.66796875 C-32.00130208 192.00130208 -34.33463542 194.33463542 -36.66796875 196.66796875 C-37.23330322 197.23410889 -37.7986377 197.80024902 -38.38110352 198.38354492 C-39.82377654 199.82404229 -41.27461363 201.25635269 -42.7265625 202.6875 C-45.21585971 205.21956864 -47.43872919 207.88592082 -49.66796875 210.64453125 C-50.10753906 211.09183594 -50.54710937 211.53914062 -51 212 C-51.66 212 -52.32 212 -53 212 C-53.33 212.99 -53.66 213.98 -54 215 C-54.66 215 -55.32 215 -56 215 C-56.26167969 215.58910156 -56.52335937 216.17820313 -56.79296875 216.78515625 C-58.0642275 219.11785434 -59.40230531 220.60354368 -61.3125 222.4375 C-63.34933002 224.40351997 -65.32851661 226.35589299 -67.25 228.4375 C-77.76896469 238.23926255 -86.93785675 243.77748858 -101.46875 243.3125 C-107.88675812 242.74453468 -112.05777734 241.37239877 -116.4375 236.4375 C-120.91486073 230.76454976 -120.87453217 224.97683549 -120.39941406 217.95458984 C-119.34357064 210.14418816 -116.93347764 202.50783663 -114.75805664 194.94628906 C-114.57256256 194.298228 -114.38706848 193.65016693 -114.19595337 192.98246765 C-113.67910385 191.19043925 -113.15029842 189.40187188 -112.62084961 187.61352539 C-112.41596924 186.75106201 -112.21108887 185.88859863 -112 185 C-112.33 184.67 -112.66 184.34 -113 184 C-118.30525804 188.55936526 -118.30525804 188.55936526 -123.375 193.375 C-128.7670183 198.7670183 -134.55391681 203.75486534 -140.3125 208.75 C-142.43304883 210.59597577 -144.44711579 212.44711579 -146.4375 214.4375 C-148.80049163 216.80049163 -151.21335028 219.06685455 -153.6875 221.3125 C-154.45449219 222.00988281 -155.22148437 222.70726562 -156.01171875 223.42578125 C-158 225 -158 225 -160 225 C-160.23074219 225.5775 -160.46148437 226.155 -160.69921875 226.75 C-162.32746601 229.56642769 -164.23677088 231.02282862 -166.8125 233 C-167.66457031 233.66 -168.51664063 234.32 -169.39453125 235 C-170.68423828 235.99 -170.68423828 235.99 -172 237 C-172.78761719 237.721875 -173.57523438 238.44375 -174.38671875 239.1875 C-180.71545631 243.57693831 -190.02320424 242.11167216 -197.390625 242.0625 C-199.41026352 242.05614304 -201.42990211 242.04979643 -203.44954205 242.04390717 C-205.5864984 242.03700105 -207.72343626 242.02791565 -209.86038208 242.01831055 C-217.21288173 241.98622667 -224.565405 241.97387615 -231.91796875 241.96875 C-232.64919889 241.96820114 -233.38042904 241.96765228 -234.13381767 241.96708679 C-253.43034253 241.95921758 -272.7136782 242.3928111 -292 243 C-291.99476318 243.74685059 -291.98952637 244.49370117 -291.98413086 245.26318359 C-291.96339599 248.63378057 -291.95035101 252.00436414 -291.9375 255.375 C-291.92912109 256.550625 -291.92074219 257.72625 -291.91210938 258.9375 C-291.90888672 260.05898438 -291.90566406 261.18046875 -291.90234375 262.3359375 C-291.89710693 263.37282715 -291.89187012 264.4097168 -291.88647461 265.47802734 C-292 268 -292 268 -293 270 C-293.11374856 271.53830238 -293.16671349 273.08129217 -293.18945312 274.62362671 C-293.20621094 275.59875717 -293.22296875 276.57388763 -293.24023438 277.5785675 C-293.26053711 279.18975716 -293.26053711 279.18975716 -293.28125 280.83349609 C-293.29929687 281.96233719 -293.31734375 283.09117828 -293.3359375 284.25422668 C-293.37463358 286.71560807 -293.4110715 289.17702572 -293.44555664 291.6384697 C-293.50038311 295.55077578 -293.56097408 299.46295521 -293.62304688 303.37515259 C-293.74332655 311.00252862 -293.85642567 318.63000304 -293.96875 326.25749969 C-294.12082302 336.56196878 -294.27760289 346.86635717 -294.43969727 357.17067337 C-294.49859 360.99439045 -294.55316544 364.818152 -294.60742188 368.64193726 C-294.78846612 380.69516054 -295.10902157 392.71492011 -295.77487183 404.75125122 C-296.08099661 410.31612831 -296.21804243 415.88109157 -296.31640625 421.453125 C-296.3475779 423.00879181 -296.3475779 423.00879181 -296.37937927 424.59588623 C-296.44323168 427.81387686 -296.50296905 431.03192686 -296.5625 434.25 C-296.60584281 436.47135959 -296.64946114 438.69271382 -296.69335938 440.9140625 C-296.79873591 446.27598432 -296.90076224 451.63796123 -297 457 C-295.06330066 456.73417852 -293.12877456 456.45248901 -291.1953125 456.1640625 C-290.11781738 456.0088916 -289.04032227 455.8537207 -287.93017578 455.69384766 C-283.85844352 454.72968643 -282.53814754 453.21498688 -280 450 C-279.34 450 -278.68 450 -278 450 C-277.731875 449.401875 -277.46375 448.80375 -277.1875 448.1875 C-276.00082594 446.00152146 -274.90400887 444.58667406 -273 443 C-272.34 443 -271.68 443 -271 443 C-271 442.34 -271 441.68 -271 441 C-270.34 441 -269.68 441 -269 441 C-269 440.34 -269 439.68 -269 439 C-266.08729607 435.80542149 -262.88427423 433.02334715 -259.625 430.1875 C-255.35012885 426.41513854 -251.65289608 422.36648509 -248 418 C-244.17216512 413.45122761 -240.37526354 409.34953815 -235.76953125 405.5859375 C-233.05187661 403.15024703 -230.78811419 400.3589313 -228.48046875 397.5390625 C-227.99191406 397.03117187 -227.50335938 396.52328125 -227 396 C-226.34 396 -225.68 396 -225 396 C-224.6596875 395.1646875 -224.6596875 395.1646875 -224.3125 394.3125 C-222.62971908 391.34760028 -220.43891488 389.383485 -218 387 C-216.98908995 385.84277402 -215.98945887 384.67561995 -215 383.5 C-212.47020344 380.51082861 -209.8065888 377.73462499 -207 375 C-203.86061296 371.87831627 -200.74940366 368.73023955 -197.64453125 365.57421875 C-196.03397359 363.94519442 -194.42329347 362.31629116 -192.8125 360.6875 C-191.99330078 359.85154297 -191.17410156 359.01558594 -190.33007812 358.15429688 C-189.54697266 357.36474609 -188.76386719 356.57519531 -187.95703125 355.76171875 C-187.24522705 355.03944092 -186.53342285 354.31716309 -185.80004883 353.57299805 C-184 352 -184 352 -182 352 C-182 351.34 -182 350.68 -182 350 C-180.20703125 348.52734375 -180.20703125 348.52734375 -177.8125 346.9375 C-177.03519531 346.41027344 -176.25789062 345.88304687 -175.45703125 345.33984375 C-172.93014494 343.96190733 -170.83357045 343.40767177 -168 343 C-168 342.34 -168 341.68 -168 341 C-141.47790326 332.00439522 -141.47790326 332.00439522 -129.125 336.25 C-126.49352307 337.72362708 -124.92183174 338.76745295 -123 341 C-123 341.66 -123 342.32 -123 343 C-122.34 343 -121.68 343 -121 343 C-116.94155703 352.13149668 -118.92405096 362.58408827 -121 372 C-121.66 372 -122.32 372 -123 372 C-123.0825 373.27875 -123.165 374.5575 -123.25 375.875 C-124.04137079 384.04856103 -126.13094427 392.0195667 -128 400 C-127.38125 399.01 -126.7625 398.02 -126.125 397 C-125.42375 396.01 -124.7225 395.02 -124 394 C-123.34 394 -122.68 394 -122 394 C-122 393.34 -122 392.68 -122 392 C-120.69365513 390.64021375 -119.35403705 389.31230303 -118 388 C-111.98593435 380.99963786 -111.98593435 380.99963786 -106.625 373.5 C-105.22211122 371.34170958 -103.98760802 369.62622474 -102 368 C-101.34 368 -100.68 368 -100 368 C-99.74347656 367.43410156 -99.48695313 366.86820312 -99.22265625 366.28515625 C-96.80018711 361.75753822 -93.23672854 357.96402089 -90 354 C-89.25878906 353.05898438 -88.51757812 352.11796875 -87.75390625 351.1484375 C-82.47235902 344.50302452 -77.08459378 338.72306252 -70 334 C-69.01 334 -68.02 334 -67 334 C-67 333.34 -67 332.68 -67 332 C-65.02 331.67 -63.04 331.34 -61 331 C-61 330.34 -61 329.68 -61 329 C-52.62411994 326.6894124 -42.73408746 324.90015961 -34.57421875 328.51953125 C-33.72472656 329.00808594 -32.87523437 329.49664062 -32 330 C-32 330.66 -32 331.32 -32 332 C-31.34 332 -30.68 332 -30 332 C-20.06749602 345.81475173 -26.62353055 367.59465924 -29.11065674 382.90837097 C-30.2671376 389.95447097 -31.46192877 396.99430006 -32.6953125 404.02734375 C-32.92234863 405.32406006 -33.14938477 406.62077637 -33.38330078 407.95678711 C-34 411 -34 411 -35 413 C-33.8361377 412.75838135 -32.67227539 412.5167627 -31.47314453 412.26782227 C-22.04688423 410.33429457 -12.60931321 408.54551559 -3.1171875 406.96484375 C-2.11504211 406.79779938 -1.11289673 406.630755 -0.0803833 406.45864868 C4.03350443 405.77571128 8.14807993 405.09715378 12.26367188 404.42456055 C15.32518843 403.92283325 18.38528619 403.41307019 21.4453125 402.90234375 C22.35902618 402.75538559 23.27273987 402.60842743 24.21414185 402.45701599 C29.57628724 401.55668544 34.68230828 400.30614948 39.86274719 398.65040588 C42.57027125 397.82645582 45.26059524 397.37831625 48.0625 397 C56.15422773 395.73921995 63.32203518 392.95399461 70.8359375 389.76953125 C73 389 73 389 76 389 C76 388.34 76 387.68 76 387 C76.99 387 77.98 387 79 387 C79 386.34 79 385.68 79 385 C83.38461538 382 83.38461538 382 86 382 C86.33 381.01 86.66 380.02 87 379 C88.6459651 377.31288577 90.31237149 375.6454378 92 374 C92.33 373.34 92.66 372.68 93 372 C93.66 372 94.32 372 95 372 C95.28875 371.05125 95.5775 370.1025 95.875 369.125 C97 366 97 366 99 364 C99.75406896 361.9398267 100.43166461 359.85118556 101.0625 357.75 C101.40410156 356.63109375 101.74570312 355.5121875 102.09765625 354.359375 C108.79510686 329.4251433 102.31474686 301.76787022 90.6875 279.3125 C85.58846794 270.69464709 79.96110156 263.01429543 71.65234375 257.3046875 C70.83443359 256.65886719 70.83443359 256.65886719 70 256 C70 255.34 70 254.68 70 254 C69.01 254 68.02 254 67 254 C67 253.34 67 252.68 67 252 C66.484375 251.9175 65.96875 251.835 65.4375 251.75 C62.60237856 250.87765494 60.28792532 249.43150299 57.75 247.921875 C55.55330313 246.76468647 53.45514984 246.29759392 51 246 C50.67 244.68 50.34 243.36 50 242 C52.64 241.67 55.28 241.34 58 241 C58 240.34 58 239.68 58 239 C58.76183594 238.63648438 59.52367187 238.27296875 60.30859375 237.8984375 C66.27217905 234.99481919 71.85705894 231.95924361 77.2578125 228.1015625 C79 227 79 227 81 227 C81 226.34 81 225.68 81 225 C95.36398207 227.62355837 109.4201109 245.56079634 117.5625 256.6875 C121.94156494 263.14407482 125.47914211 270.05093838 129 277 C129.4021875 277.76828125 129.804375 278.5365625 130.21875 279.328125 C136.32966881 291.84565225 138.65533362 306.39142957 141 320 C141.17789063 320.78117187 141.35578125 321.56234375 141.5390625 322.3671875 C147.0203443 353.67552593 139.43983227 384.104451 122.296875 410.41796875 C121.86890625 410.94003906 121.4409375 411.46210938 121 412 C120.34 412 119.68 412 119 412 C119 412.66 119 413.32 119 414 C118.34 414 117.68 414 117 414 C116.7628125 414.74636719 116.525625 415.49273437 116.28125 416.26171875 C114.79593729 419.43612184 113.29135721 420.73257637 110.5 422.8125 C109.7059375 423.41707031 108.911875 424.02164062 108.09375 424.64453125 C106 426 106 426 104 426 C104 426.66 104 427.32 104 428 C101.09451118 430.04169485 99.59857954 431 96 431 C96 431.66 96 432.32 96 433 C93.35261084 434.4606285 92.10551666 435 89 435 C89 435.66 89 436.32 89 437 C88.1646875 437.27263672 88.1646875 437.27263672 87.3125 437.55078125 C83.39594866 438.84086151 79.5225733 440.17080435 75.6875 441.6875 C72 443 72 443 68 443 C68 443.66 68 444.32 68 445 C41.32268591 451.13740436 14.62700173 457.19504599 -12.0921917 463.14752579 C-18.31349481 464.53393002 -24.53302349 465.92749595 -30.74926758 467.33642578 C-36.86805641 468.7230328 -42.99052259 470.0921138 -49.11599159 471.4488945 C-51.4246026 471.96339361 -53.73184083 472.48409549 -56.03758812 473.01128006 C-59.23536783 473.74128451 -62.43737895 474.44866029 -65.64135742 475.15087891 C-67.04458 475.47943878 -67.04458 475.47943878 -68.47615051 475.81463623 C-74.35898976 477.07243329 -78.29326318 476.99408507 -84 475 C-91.52453575 469.99057151 -96.73004397 464.03859886 -98.58984375 455.1953125 C-99.8196388 445.42722611 -97.88999924 436.33394397 -96.05859375 426.7578125 C-94.62542509 419.21760586 -93.77846554 411.63101093 -93 404 C-93.47308594 404.59425781 -93.94617188 405.18851562 -94.43359375 405.80078125 C-98.11342908 410.41312846 -101.81559913 415.0044144 -105.5625 419.5625 C-110.06561851 425.05599509 -114.52213504 430.58579897 -118.6953125 436.3359375 C-119.22898437 437.07070313 -119.76265625 437.80546875 -120.3125 438.5625 C-120.78300781 439.22378906 -121.25351562 439.88507813 -121.73828125 440.56640625 C-122.15464844 441.03949219 -122.57101562 441.51257813 -123 442 C-123.66 442 -124.32 442 -125 442 C-125.2578125 442.72574219 -125.515625 443.45148438 -125.78125 444.19921875 C-127.05242499 447.12047667 -128.54016402 449.30872649 -130.5 451.8125 C-131.1084375 452.60269531 -131.716875 453.39289063 -132.34375 454.20703125 C-132.8903125 454.79871094 -133.436875 455.39039063 -134 456 C-134.66 456 -135.32 456 -136 456 C-136.26425781 456.57363281 -136.52851563 457.14726562 -136.80078125 457.73828125 C-138.06480483 460.12222149 -139.50787991 462.0774052 -141.1875 464.1875 C-143.13230779 466.6368186 -145.06507474 469.08650497 -146.9453125 471.5859375 C-147.56148437 472.40320313 -148.17765625 473.22046875 -148.8125 474.0625 C-149.37582031 474.81660156 -149.93914062 475.57070313 -150.51953125 476.34765625 C-151.25236328 477.16556641 -151.25236328 477.16556641 -152 478 C-152.66 478 -153.32 478 -154 478 C-154 478.66 -154 479.32 -154 480 C-154.66 480 -155.32 480 -156 480 C-156.3403125 480.8353125 -156.3403125 480.8353125 -156.6875 481.6875 C-159.88977527 487.32960404 -165.86577778 492.06716311 -171 496 C-171.66 496 -172.32 496 -173 496 C-173 496.66 -173 497.32 -173 498 C-173.99 498 -174.98 498 -176 498 C-176 498.66 -176 499.32 -176 500 C-177.32 500 -178.64 500 -180 500 C-180 500.66 -180 501.32 -180 502 C-203.3450847 508.74572493 -203.3450847 508.74572493 -212 504 C-215.38883767 502.01510936 -217.54582673 500.05712744 -219.1328125 496.36328125 C-220.17516403 492.32064761 -220.34228511 488.65657871 -220.3125 484.5 C-220.30903564 483.71189941 -220.30557129 482.92379883 -220.30200195 482.11181641 C-220.11426387 471.84534402 -217.71832596 462.53831442 -214 453 C-213.23912311 450.01755048 -212.59416473 447.01975485 -212 444 C-211.34 444 -210.68 444 -210 444 C-209.9175 442.989375 -209.835 441.97875 -209.75 440.9375 C-208.92771702 434.15059716 -206.83898541 427.56902694 -205 421 C-205.66 421 -206.32 421 -207 421 C-207.3403125 421.804375 -207.3403125 421.804375 -207.6875 422.625 C-209.95210896 426.72286383 -213.02722772 430.02886539 -216.3203125 433.31640625 C-219.1456448 436.14585711 -221.8639153 439.0506453 -224.5625 442 C-225.03107422 442.50789063 -225.49964844 443.01578125 -225.98242188 443.5390625 C-228.16553018 445.9206352 -230.24225327 448.31445927 -232.21484375 450.875 C-232.80394531 451.57625 -233.39304688 452.2775 -234 453 C-234.66 453 -235.32 453 -236 453 C-236.37125 453.8353125 -236.37125 453.8353125 -236.75 454.6875 C-238.22924818 457.42410913 -239.93467439 459.67650869 -242 462 C-242.66 462 -243.32 462 -244 462 C-244.26498291 462.58789307 -244.52996582 463.17578613 -244.80297852 463.78149414 C-246.03750298 466.06950634 -247.34943898 467.63268356 -249.15234375 469.49609375 C-249.76400391 470.13740234 -250.37566406 470.77871094 -251.00585938 471.43945312 C-251.64330078 472.09880859 -252.28074219 472.75816406 -252.9375 473.4375 C-256.81154065 477.44553595 -260.23656732 481.122322 -263 486 C-264.43370965 487.20561948 -265.87076902 488.40804699 -267.33984375 489.5703125 C-269.85204473 491.73376088 -271.9198554 494.22664542 -274.06640625 496.74609375 C-276.96846963 500.12890298 -279.98329091 503.40822848 -282.984375 506.703125 C-285.01426526 508.93914975 -285.01426526 508.93914975 -286.640625 511.296875 C-287.08921875 511.85890625 -287.5378125 512.4209375 -288 513 C-288.66 513 -289.32 513 -290 513 C-290 513.66 -290 514.32 -290 515 C-290.66 515 -291.32 515 -292 515 C-292.28587982 515.58791321 -292.57175964 516.17582642 -292.86630249 516.78155518 C-295.45985004 521.85666744 -297.67654878 525.12473967 -303.21356201 527.21057129 C-307.38048336 528.3062367 -311.55283993 529.21969766 -315.7734375 530.078125 C-317.34129001 530.41735367 -318.90863638 530.75892922 -320.47549438 531.10272217 C-324.59739052 532.00027302 -328.72554865 532.86479421 -332.85583496 533.72277832 C-337.00602073 534.59134702 -341.14902299 535.49285156 -345.29296875 536.390625 C-359.49518757 539.45284156 -373.70915949 542.3794534 -388 545 C-388.46299842 521.30991408 -387.10413622 497.65670589 -386 474 C-385.67 474 -385.34 474 -385 474 C-384.97494385 473.31897217 -384.9498877 472.63794434 -384.92407227 471.9362793 C-384.80809048 468.85316245 -384.68537384 465.77034954 -384.5625 462.6875 C-384.52318359 461.61564453 -384.48386719 460.54378906 -384.44335938 459.43945312 C-384.40146484 458.41142578 -384.35957031 457.38339844 -384.31640625 456.32421875 C-384.27974854 455.37635498 -384.24309082 454.42849121 -384.20532227 453.4519043 C-384 451 -384 451 -383 448 C-382.8635689 446.4874564 -382.77568215 444.97025338 -382.71875 443.45263672 C-382.68201172 442.53513641 -382.64527344 441.61763611 -382.60742188 440.67233276 C-382.57197266 439.68475983 -382.53652344 438.69718689 -382.5 437.6796875 C-382.45939453 436.66528595 -382.41878906 435.6508844 -382.37695312 434.60574341 C-382.20298069 430.25873276 -382.03912511 425.91135685 -381.875 421.56396484 C-381.75386244 418.39404087 -381.62711922 415.22437631 -381.5 412.0546875 C-381.46455078 411.0630661 -381.42910156 410.0714447 -381.39257812 409.04977417 C-381.35583984 408.13857819 -381.31910156 407.2273822 -381.28125 406.28857422 C-381.23581055 405.07970047 -381.23581055 405.07970047 -381.18945312 403.84640503 C-381 402 -381 402 -380 401 C-379.84815681 399.46712429 -379.76193121 397.92767344 -379.70288086 396.38842773 C-379.6429319 394.91701576 -379.6429319 394.91701576 -379.58177185 393.4158783 C-379.52389244 391.81589745 -379.52389244 391.81589745 -379.46484375 390.18359375 C-379.42186661 389.0974025 -379.37888947 388.01121124 -379.33460999 386.8921051 C-379.19776534 383.40739412 -379.06756658 379.92246993 -378.9375 376.4375 C-378.84613927 374.08136326 -378.75434814 371.72524316 -378.66210938 369.36914062 C-378.43640347 363.57961132 -378.21615995 357.78989314 -378 352 C-377.67 352 -377.34 352 -377 352 C-376.97494385 351.31897217 -376.9498877 350.63794434 -376.92407227 349.9362793 C-376.80809048 346.85316245 -376.68537384 343.77034954 -376.5625 340.6875 C-376.52318359 339.61564453 -376.48386719 338.54378906 -376.44335938 337.43945312 C-376.40146484 336.41142578 -376.35957031 335.38339844 -376.31640625 334.32421875 C-376.26141968 332.9024231 -376.26141968 332.9024231 -376.20532227 331.4519043 C-376 329 -376 329 -375 326 C-374.8635689 324.4874564 -374.77568215 322.97025338 -374.71875 321.45263672 C-374.66364258 320.07638626 -374.66364258 320.07638626 -374.60742188 318.67233276 C-374.57197266 317.68475983 -374.53652344 316.69718689 -374.5 315.6796875 C-374.45939453 314.66528595 -374.41878906 313.6508844 -374.37695312 312.60574341 C-374.20298069 308.25873276 -374.03912511 303.91135685 -373.875 299.56396484 C-373.75386244 296.39404087 -373.62711922 293.22437631 -373.5 290.0546875 C-373.46455078 289.0630661 -373.42910156 288.0714447 -373.39257812 287.04977417 C-373.3374707 285.68298019 -373.3374707 285.68298019 -373.28125 284.28857422 C-373.25095703 283.48265839 -373.22066406 282.67674255 -373.18945312 281.84640503 C-373 280 -373 280 -372 279 C-371.8482871 277.49779798 -371.76196782 275.9889116 -371.70288086 274.48022461 C-371.66291489 273.51930405 -371.62294891 272.55838348 -371.58177185 271.56834412 C-371.54318558 270.523564 -371.5045993 269.47878387 -371.46484375 268.40234375 C-371.42186661 267.33834854 -371.37888947 266.27435333 -371.33460999 265.17811584 C-371.19776942 261.76473777 -371.06756861 258.3511422 -370.9375 254.9375 C-370.84613887 252.62954 -370.75434774 250.32159698 -370.66210938 248.01367188 C-370.43640801 242.34263584 -370.21616392 236.67140715 -370 231 C-369.34 231 -368.68 231 -368 231 C-368.00785522 230.15127319 -368.00785522 230.15127319 -368.01586914 229.28540039 C-368.13815376 213.82955329 -367.73430763 198.43803684 -367 183 C-366.34 183 -365.68 183 -365 183 C-365.00785522 181.97845825 -365.00785522 181.97845825 -365.01586914 180.9362793 C-365.03664458 177.85336223 -365.04966198 174.7704599 -365.0625 171.6875 C-365.07087891 170.61564453 -365.07925781 169.54378906 -365.08789062 168.43945312 C-365.09272461 166.89741211 -365.09272461 166.89741211 -365.09765625 165.32421875 C-365.10289307 164.37635498 -365.10812988 163.42849121 -365.11352539 162.4519043 C-365 160 -365 160 -364 157 C-363.8635689 155.4874564 -363.77568215 153.97025338 -363.71875 152.45263672 C-363.68201172 151.53513641 -363.64527344 150.61763611 -363.60742188 149.67233276 C-363.57197266 148.68475983 -363.53652344 147.69718689 -363.5 146.6796875 C-363.45939453 145.66528595 -363.41878906 144.6508844 -363.37695312 143.60574341 C-363.20298069 139.25873276 -363.03912511 134.91135685 -362.875 130.56396484 C-362.75386244 127.39404087 -362.62711922 124.22437631 -362.5 121.0546875 C-362.46455078 120.0630661 -362.42910156 119.0714447 -362.39257812 118.04977417 C-362.35583984 117.13857819 -362.31910156 116.2273822 -362.28125 115.28857422 C-362.25095703 114.48265839 -362.22066406 113.67674255 -362.18945312 112.84640503 C-362 111 -362 111 -361 110 C-360.85375151 108.56427703 -360.77255513 107.12183662 -360.71875 105.6796875 C-360.68201172 104.76203613 -360.64527344 103.84438477 -360.60742188 102.89892578 C-360.57197266 101.90103027 -360.53652344 100.90313477 -360.5 99.875 C-360.45939453 98.85776855 -360.41878906 97.84053711 -360.37695312 96.79248047 C-360.24677359 93.52847895 -360.1226745 90.26429172 -360 87 C-359.8387073 82.70810193 -359.67130686 78.41650869 -359.5 74.125 C-359.46455078 73.12710449 -359.42910156 72.12920898 -359.39257812 71.10107422 C-359.35583984 70.18342285 -359.31910156 69.26577148 -359.28125 68.3203125 C-359.25095703 67.50836426 -359.22066406 66.69641602 -359.18945312 65.85986328 C-359 64 -359 64 -358 63 C-357.8482871 61.49779798 -357.76196782 59.9889116 -357.70288086 58.48022461 C-357.66291489 57.51930405 -357.62294891 56.55838348 -357.58177185 55.56834412 C-357.52389244 54.00117393 -357.52389244 54.00117393 -357.46484375 52.40234375 C-357.42186661 51.33834854 -357.37888947 50.27435333 -357.33460999 49.17811584 C-357.19776942 45.76473777 -357.06756861 42.3511422 -356.9375 38.9375 C-356.84613887 36.62954 -356.75434774 34.32159698 -356.66210938 32.01367188 C-356.43640801 26.34263584 -356.21616392 20.67140715 -356 15 C-355.67 15 -355.34 15 -355 15 C-354.67 9.06 -354.34 3.12 -354 -3 C-342.13808303 -2.29586013 -330.52518688 -0.2536831 -318.81274414 1.67773438 C-316.4676328 2.06090669 -314.12245162 2.44365181 -311.77720642 2.82600403 C-306.74489013 3.64729719 -301.71305293 4.4714457 -296.68156624 5.29780579 C-289.39310428 6.49469252 -282.10369548 7.6857088 -274.81396728 8.87485594 C-262.96537977 10.80774128 -251.11734168 12.74397073 -239.26977539 14.68310547 C-238.5622239 14.79891163 -237.85467241 14.9147178 -237.12567996 15.03403324 C-229.95043644 16.20846175 -222.77525144 17.38324755 -215.60010663 18.55827901 C-212.02027619 19.1445241 -208.44043841 19.73072437 -204.8605957 20.31689453 C-204.15421969 20.43255923 -203.44784367 20.54822393 -202.72006232 20.66739362 C-190.91501685 22.60026664 -179.10927547 24.52885516 -167.30301565 26.45429659 C-159.39285066 27.7445563 -151.48359403 29.04019405 -143.57494175 30.33969879 C-138.64626239 31.14841642 -133.71684813 31.95258221 -128.78722572 32.7555294 C-126.51059221 33.12729793 -124.23426183 33.50092854 -121.95827103 33.87661171 C-115.31328031 34.97288196 -108.66564996 36.03645192 -102 37 C-101.28466119 37.1040106 -100.56932237 37.2080212 -99.83230662 37.31518364 C-98.01042724 37.56622293 -96.1828687 37.77509871 -94.35520935 37.9798584 C-93.417051 38.08589134 -92.47889265 38.19192429 -91.51230526 38.30117035 C-88.07233649 37.88879347 -86.52975543 36.2916272 -84 34 C-82.12262251 32.72244851 -80.22648466 31.47202568 -78.3125 30.25 C-77.35988281 29.63640625 -76.40726562 29.0228125 -75.42578125 28.390625 C-73 27 -73 27 -71 27 C-71 26.34 -71 25.68 -71 25 C-66.61538462 22 -66.61538462 22 -64 22 C-64 21.34 -64 20.68 -64 20 C-61.98046875 18.5546875 -61.98046875 18.5546875 -59.1875 16.875 C-55.13713825 14.37727692 -51.25480119 11.77866274 -47.4375 8.9375 C-31.55520009 -2.72006295 -18.9543026 -6.86345273 0 0 Z M-43 33 C-43.67204468 33.50599731 -43.67204468 33.50599731 -44.35766602 34.0222168 C-46.42528524 35.57818877 -48.49388639 37.1328503 -50.5625 38.6875 C-51.61920898 39.48317383 -51.61920898 39.48317383 -52.69726562 40.29492188 C-53.74624023 41.08286133 -53.74624023 41.08286133 -54.81640625 41.88671875 C-55.51137207 42.40927246 -56.20633789 42.93182617 -56.92236328 43.47021484 C-58.92944417 44.94804902 -60.97226896 46.35961221 -63.02734375 47.76953125 C-64.00832031 48.50558594 -64.98929688 49.24164063 -66 50 C-66 50.66 -66 51.32 -66 52 C-68.475 52.99 -68.475 52.99 -71 54 C-71 54.66 -71 55.32 -71 56 C-73.475 56.99 -73.475 56.99 -76 58 C-76 58.66 -76 59.32 -76 60 C-76.53625 60.22300781 -77.0725 60.44601563 -77.625 60.67578125 C-81.32466436 62.73858753 -84.45157753 65.71669768 -87.51953125 68.63085938 C-90.0567348 70.7637154 -91.99713432 71.97444415 -95.37306881 72.06047249 C-96.28007314 71.96527761 -97.18707747 71.87008274 -98.12156677 71.77200317 C-99.19107008 71.66133137 -100.26057339 71.55065956 -101.36248589 71.43663406 C-108.56012433 70.57265553 -115.74606641 69.6391036 -122.92993164 68.66748047 C-124.71002598 68.42898626 -126.49015809 68.19077393 -128.27032471 67.95281982 C-132.07960858 67.44314618 -135.88865355 66.9317347 -139.69752693 66.41900253 C-145.71827617 65.60876793 -151.7397373 64.80391473 -157.76133728 64.00003052 C-174.875556 61.71450883 -191.98893217 59.42273767 -209.10131836 57.12353516 C-218.57047847 55.85131591 -228.04028006 54.58398739 -237.51081365 53.32203209 C-243.50024903 52.52364543 -249.48882225 51.71914918 -255.47683632 50.91017509 C-259.19116012 50.40983305 -262.90622796 49.91520668 -266.62153625 49.42223358 C-268.34765947 49.19202301 -270.07346792 48.95943845 -271.79893303 48.72434616 C-274.14800666 48.40462885 -276.49804513 48.09332366 -278.848526 47.78414917 C-279.53586368 47.68853569 -280.22320136 47.59292221 -280.93136746 47.49441135 C-284.06721207 47.09066475 -285.94979061 46.98326354 -289 48 C-288.98839844 49.03253906 -288.97679687 50.06507812 -288.96484375 51.12890625 C-288.90075505 59.64248454 -289.0507327 68.11584198 -289.46826172 76.61962891 C-290.03486956 88.91797946 -290.32802544 101.21502547 -290.5703125 113.5234375 C-290.61603159 115.77503637 -290.66184027 118.02663342 -290.70773315 120.27822876 C-290.80201057 124.93854262 -290.89413555 129.59889309 -290.98486328 134.25927734 C-291.10170332 140.2436714 -291.22581573 146.22789189 -291.3516407 152.21210289 C-291.44775585 156.83404938 -291.53927676 161.45607822 -291.62945175 166.07814407 C-291.67328391 168.28789171 -291.71876218 170.49760732 -291.76590347 172.70728683 C-291.83067847 175.76751433 -291.88908586 178.82779763 -291.94580078 181.88818359 C-291.96652649 182.80222961 -291.9872522 183.71627563 -292.00860596 184.65802002 C-292.04443648 186.77171162 -292.02812091 188.88619177 -292 191 C-290.40981557 192.59018443 -288.73724311 192.17870183 -286.5297699 192.23414612 C-285.56391464 192.26076324 -284.59805939 192.28738037 -283.60293579 192.31480408 C-282.53441376 192.33926102 -281.46589172 192.36371796 -280.36499023 192.38891602 C-279.24628036 192.41832275 -278.1275705 192.44772949 -276.97496033 192.47802734 C-273.25294152 192.57466451 -269.53078873 192.66433257 -265.80859375 192.75390625 C-263.22842929 192.81934318 -260.64827495 192.88517978 -258.06813049 192.95140076 C-252.64664418 193.08958052 -247.22509662 193.224759 -241.8034668 193.35717773 C-234.17805196 193.54343259 -226.55281787 193.73640286 -218.9276017 193.93059647 C-212.99213511 194.08146383 -207.05661462 194.23019267 -201.12109375 194.37890625 C-199.85947355 194.41060976 -198.59785336 194.44231327 -197.29800224 194.47497749 C-193.71228563 194.56461459 -190.12653647 194.65280005 -186.54077148 194.74047852 C-185.48641907 194.76695969 -184.43206665 194.79344086 -183.34576416 194.82072449 C-181.42276826 194.86715549 -179.49967412 194.90975717 -177.5764904 194.94761848 C-175.92255921 194.98124385 -174.26878557 195.02502333 -172.61548042 195.0816021 C-167.23826339 195.21067524 -165.17603568 194.22749013 -161.1875 190.5625 C-160.15567232 189.63981427 -159.12310345 188.71795682 -158.08984375 187.796875 C-157.57663574 187.32830078 -157.06342773 186.85972656 -156.53466797 186.37695312 C-154.17998841 184.26425941 -151.7144767 182.29501939 -149.25 180.3125 C-146.11857794 177.75815429 -143.0274167 175.1766794 -140 172.5 C-136.9725833 169.8233206 -133.88142206 167.24184571 -130.75 164.6875 C-129.83089844 163.93726563 -128.91179687 163.18703125 -127.96484375 162.4140625 C-126.42363663 161.15916659 -124.88208328 159.9046837 -123.33642578 158.65527344 C-121.65730454 157.29641924 -119.98453756 155.93005544 -118.3125 154.5625 C-117.29800781 153.73878906 -116.28351563 152.91507812 -115.23828125 152.06640625 C-114.49964844 151.38449219 -113.76101563 150.70257813 -113 150 C-113 149.34 -113 148.68 -113 148 C-112.401875 147.71125 -111.80375 147.4225 -111.1875 147.125 C-108.80672208 145.95257974 -108.80672208 145.95257974 -106 144 C-106 143.34 -106 142.68 -106 142 C-104.68 141.67 -103.36 141.34 -102 141 C-102 140.34 -102 139.68 -102 139 C-101.01 139 -100.02 139 -99 139 C-99 138.34 -99 137.68 -99 137 C-98.39671875 136.80664062 -97.7934375 136.61328125 -97.171875 136.4140625 C-96.37265625 136.15367187 -95.5734375 135.89328125 -94.75 135.625 C-93.96109375 135.36976563 -93.1721875 135.11453125 -92.359375 134.8515625 C-90.02524774 134.07520608 -90.02524774 134.07520608 -88.078125 132.9609375 C-80.16092274 129.29997555 -68.08661046 129.7447184 -59.875 132.1875 C-54.9275155 134.18140147 -51.91772245 136.98975083 -49.6875 141.875 C-47.94153185 149.81121887 -49.87536865 157.00336416 -51.5625 164.8125 C-52.04911354 167.06769328 -52.52989904 169.32415467 -53.00390625 171.58203125 C-53.21861572 172.57436768 -53.4333252 173.5667041 -53.65454102 174.58911133 C-54.23439399 177.00584503 -54.23439399 177.00584503 -53 179 C-52.7525 178.38125 -52.505 177.7625 -52.25 177.125 C-50.74997691 174.57496075 -49.6302751 174.23777652 -47 173 C-44.74934898 171.08333079 -44.74934898 171.08333079 -43 169 C-43 168.34 -43 167.68 -43 167 C-42.0409375 166.5978125 -42.0409375 166.5978125 -41.0625 166.1875 C-38.66868314 165.11332248 -38.66868314 165.11332248 -38 162 C-36.66666667 161.33333333 -35.33333333 160.66666667 -34 160 C-33.67 159.01 -33.34 158.02 -33 157 C-32.42765625 156.71769531 -31.8553125 156.43539062 -31.265625 156.14453125 C-28.1162586 154.55355822 -26.1703989 152.2427497 -23.75 149.6875 C-16.6085034 142.38474762 -10.41119612 137.80310769 0 137 C13.85977396 137.01632482 13.85977396 137.01632482 19 141 C23.76611079 146.74069614 24.78036825 151.67949392 24.5625 159 C24.55025391 159.93755127 24.53800781 160.87510254 24.52539062 161.84106445 C24.22827166 172.3119168 22.38991399 182.54883515 20.3671875 192.80541992 C19.91748915 195.12229728 19.91748915 195.12229728 20 198 C32.20015541 197.14778326 41.68234996 194.87843336 52 188 C52 187.34 52 186.68 52 186 C52.66 186 53.32 186 54 186 C54 185.34 54 184.68 54 184 C54.66 184 55.32 184 56 184 C62.4213981 176.54289253 63.59635746 166.09871677 63.35546875 156.56640625 C62.3338663 146.31670257 59.76094173 136.15721559 55 127 C54.5875 126.030625 54.175 125.06125 53.75 124.0625 C48.46113847 114.80699232 40.16294197 103.81326006 30 100 C28.875 98.1875 28.875 98.1875 28 96 C27.2575 94.8553125 27.2575 94.8553125 26.5 93.6875 C21.43511404 84.61291266 21.86805643 73.91597712 24.5234375 64.09936523 C25.35507054 60.43583424 25.46929653 56.74337094 25.625 53 C25.66367187 52.22527344 25.70234375 51.45054688 25.7421875 50.65234375 C25.83521357 48.76856585 25.91863175 46.88431744 26 45 C23.96166576 46.2739589 21.96147874 47.61061923 20 49 C20 49.66 20 50.32 20 51 C19.41476562 51.26554687 18.82953125 51.53109375 18.2265625 51.8046875 C15.93521945 53.03477693 14.28991056 54.37306055 12.375 56.125 C8.47526077 59.6230807 4.4232039 62.87931033 0.296875 66.10546875 C-1.94834378 67.9573924 -3.95833388 69.92886654 -6 72 C-12.75344347 77.65084045 -20.21712501 80.47102294 -29.125 80 C-35.07260089 79.10028331 -40.54610877 76.97641793 -44.44921875 72.2421875 C-48.93592848 64.46522398 -47.34904729 56.96518469 -45.15405273 48.71411133 C-44.6811618 47.00542025 -44.19395621 45.30061822 -43.69165039 43.6003418 C-43.4621167 42.80668213 -43.23258301 42.01302246 -42.99609375 41.1953125 C-42.78138428 40.48391113 -42.5666748 39.77250977 -42.34545898 39.03955078 C-41.95366646 36.72645202 -42.2837318 35.21380679 -43 33 Z " fill="#FEFEFE" transform="translate(439,30)"/>
</svg>
